<?xml version="1.0" encoding="utf-8"?>
<!-- Generator: Adobe Illustrator 21.1.0, SVG Export Plug-In . SVG Version: 6.00 Build 0)  -->
<svg version="1.1" id="Layer_1" xmlns="http://www.w3.org/2000/svg" xmlns:xlink="http://www.w3.org/1999/xlink" x="0px" y="0px"
	 viewBox="0 0 186.9 28.9" style="enable-background:new 0 0 186.9 28.9;" xml:space="preserve">
<style type="text/css">
	.st0{fill:#FFFFFF;}
	.st1{fill:#2CD3F6;}
</style>
<path id="XMLID_42_" class="st0" d="M-74-352.2h2.1v-7.8H-74V-352.2z M-64.3-356.1c0,1.1-0.9,2-2,2s-2-0.9-2-2c0-1.1,0.9-2,2-2
	S-64.3-357.2-64.3-356.1 M-62.3-356.1c0-2.2-1.8-4-4-4s-4,1.8-4,4c0,2.2,1.8,4,4,4S-62.3-353.8-62.3-356.1 M-55.9-354.5
	c0.2-0.5,0.3-1,0.3-1.6c0-0.6-0.1-1.1-0.3-1.6c-0.2-0.5-0.5-0.9-0.9-1.2c-0.4-0.3-0.8-0.6-1.2-0.8c-0.5-0.2-1-0.3-1.5-0.3
	c0,0-0.1,0-0.1,0v0h-1.7v0.4v1.5h1.7c1.1,0,2.1,0.9,2.1,2c0,0.6-0.3,1.2-0.8,1.6c0,0,0,0,0,0c0,0-0.1,0.1-0.1,0.1c0,0,0,0-0.1,0
	c0,0-0.1,0-0.1,0.1c0,0,0,0-0.1,0c0,0-0.1,0-0.1,0.1c0,0,0,0,0,0c-0.1,0-0.2,0.1-0.3,0.1c-0.2,0-0.3,0.1-0.5,0.1h-1.7v1.5v0.4h1.7v0
	c0,0,0.1,0,0.1,0c0.5,0,1-0.1,1.5-0.3c0.5-0.2,0.9-0.5,1.2-0.8C-56.4-353.6-56.1-354-55.9-354.5 M-50.8-352.2h1.7v-0.4v-1.5h-1.7
	c-1.1,0-2.1-0.9-2.1-2c0-0.6,0.3-1.2,0.8-1.6c0,0,0,0,0,0c0,0,0.1-0.1,0.1-0.1c0,0,0,0,0.1,0c0,0,0.1,0,0.1-0.1c0,0,0,0,0.1,0
	c0,0,0.1,0,0.1-0.1c0,0,0,0,0,0c0.1,0,0.2-0.1,0.3-0.1c0.2,0,0.3-0.1,0.5-0.1h1.7v-1.5v-0.4h-1.7v0c0,0-0.1,0-0.1,0
	c-0.5,0-1,0.1-1.5,0.3c-0.5,0.2-0.9,0.5-1.2,0.8c-0.4,0.3-0.6,0.7-0.9,1.2c-0.2,0.5-0.3,1-0.3,1.6c0,0.6,0.1,1.1,0.3,1.6
	c0.2,0.5,0.5,0.9,0.9,1.2c0.4,0.3,0.8,0.6,1.2,0.8c0.5,0.2,1,0.3,1.5,0.3C-50.9-352.2-50.8-352.2-50.8-352.2L-50.8-352.2z
	 M-46.9-356.3h1v-3.7h-1.5v0.8h0.5V-356.3z M-43.5-357.4c0,0.1,0,0.1,0,0.2c0,0.1-0.1,0.1-0.1,0.1c0,0-0.1,0.1-0.1,0.1
	c-0.1,0-0.1,0-0.2,0c-0.1,0-0.1,0-0.2,0c-0.1,0-0.1-0.1-0.1-0.1c0,0-0.1-0.1-0.1-0.1c0-0.1,0-0.1,0-0.2c0-0.1,0-0.2,0.1-0.3
	c0.1-0.1,0.2-0.1,0.3-0.1c0.1,0,0.2,0,0.3,0.1C-43.6-357.6-43.5-357.5-43.5-357.4 M-43.6-359c0,0.1,0,0.1,0,0.2c0,0,0,0.1-0.1,0.1
	c0,0-0.1,0.1-0.1,0.1c0,0-0.1,0-0.2,0c-0.1,0-0.2,0-0.3-0.1c-0.1-0.1-0.1-0.2-0.1-0.3c0-0.1,0-0.2,0.1-0.3c0.1-0.1,0.2-0.1,0.3-0.1
	c0.1,0,0.2,0,0.3,0.1C-43.6-359.2-43.6-359.1-43.6-359 M-42.7-358.8c0-0.1,0-0.2,0-0.3c0-0.2,0-0.3-0.1-0.4
	c-0.1-0.1-0.1-0.2-0.3-0.3c-0.1-0.1-0.2-0.2-0.4-0.2c-0.2,0-0.3-0.1-0.5-0.1c-0.2,0-0.4,0-0.5,0.1c-0.2,0-0.3,0.1-0.4,0.2
	c-0.1,0.1-0.2,0.2-0.3,0.3c-0.1,0.1-0.1,0.3-0.1,0.4c0,0.4,0.2,0.7,0.6,0.8c-0.5,0.2-0.7,0.5-0.7,1c0,0.2,0,0.3,0.1,0.4
	c0.1,0.1,0.2,0.2,0.3,0.3c0.1,0.1,0.3,0.2,0.4,0.2c0.2,0.1,0.4,0.1,0.6,0.1c0.2,0,0.4,0,0.6-0.1c0.2-0.1,0.3-0.1,0.4-0.2
	c0.1-0.1,0.2-0.2,0.3-0.3c0.1-0.1,0.1-0.3,0.1-0.4c0-0.4-0.3-0.8-0.8-1c0.1-0.1,0.2-0.1,0.3-0.2c0.1-0.1,0.1-0.1,0.2-0.2
	C-42.8-358.6-42.8-358.7-42.7-358.8"/>
<g>
	<path id="XMLID_1_" class="st0" d="M0,26.3h6.6v-25H0V26.3z M31,13.8c0,3.6-2.9,6.5-6.5,6.5S18,17.4,18,13.8c0-3.6,2.9-6.5,6.5-6.5
		S31,10.2,31,13.8 M37.4,13.8c0-7.2-5.8-13-13-13c-7.2,0-13,5.8-13,13c0,7.2,5.8,13,13,13C31.6,26.8,37.4,21,37.4,13.8 M57.9,18.9
		c0.7-1.5,1-3.2,1-5c0-1.8-0.3-3.5-1-5c-0.7-1.5-1.6-2.9-2.8-4c-1.1-1.1-2.5-2-4-2.6c-1.5-0.6-3.1-0.9-4.7-0.9c-0.1,0-0.3,0-0.4,0v0
		h-5.3v1.2v4.7H46c3.6,0,6.6,2.9,6.6,6.5c0,2-0.9,3.9-2.4,5.1c0,0,0,0,0,0c-0.1,0.1-0.3,0.2-0.4,0.3c-0.1,0-0.1,0.1-0.2,0.1
		c-0.1,0.1-0.2,0.1-0.3,0.2c-0.1,0-0.1,0.1-0.2,0.1c-0.1,0.1-0.2,0.1-0.3,0.2c0,0-0.1,0-0.1,0.1c-0.3,0.1-0.7,0.2-1,0.3
		c-0.5,0.1-1,0.2-1.6,0.2h-5.3v4.7v1.2H46v0c0.1,0,0.2,0,0.4,0c1.7,0,3.3-0.3,4.8-0.9c1.5-0.6,2.9-1.5,4-2.6
		C56.3,21.7,57.2,20.4,57.9,18.9 M74.4,26.3h5.3v-1.2v-4.7h-5.3c-3.6,0-6.6-2.9-6.6-6.5c0-2,0.9-3.9,2.4-5.1c0,0,0,0,0,0
		c0.1-0.1,0.3-0.2,0.4-0.3c0.1,0,0.1-0.1,0.2-0.1c0.1-0.1,0.2-0.1,0.3-0.2c0.1,0,0.1-0.1,0.2-0.1c0.1-0.1,0.2-0.1,0.3-0.2
		c0,0,0.1,0,0.1-0.1c0.3-0.1,0.7-0.2,1-0.3c0.5-0.1,1-0.2,1.6-0.2h5.3V2.6V1.3h-5.3v0c-0.1,0-0.2,0-0.4,0c-1.7,0-3.3,0.3-4.8,0.9
		c-1.5,0.6-2.9,1.5-4,2.6c-1.2,1.1-2.1,2.4-2.8,3.9c-0.7,1.5-1,3.2-1,5s0.3,3.5,1,5c0.7,1.5,1.6,2.9,2.8,4c1.1,1.1,2.5,2,4,2.6
		c1.5,0.6,3.1,0.9,4.7,0.9C74.1,26.3,74.2,26.3,74.4,26.3L74.4,26.3z M86.8,13.2h3.1V1.4h-4.8V4h1.7V13.2z M97.6,9.7
		c0,0.2,0,0.4-0.1,0.6c-0.1,0.2-0.2,0.3-0.3,0.5c-0.1,0.1-0.3,0.2-0.5,0.3c-0.2,0.1-0.4,0.1-0.5,0.1c-0.2,0-0.4,0-0.6-0.1
		c-0.2-0.1-0.3-0.2-0.4-0.3c-0.1-0.1-0.2-0.3-0.3-0.5c-0.1-0.2-0.1-0.4-0.1-0.6c0-0.4,0.1-0.7,0.4-1c0.3-0.3,0.6-0.4,1-0.4
		c0.4,0,0.7,0.1,1,0.4C97.5,8.9,97.6,9.3,97.6,9.7 M97.5,4.4c0,0.2,0,0.3-0.1,0.5c-0.1,0.2-0.2,0.3-0.3,0.4
		c-0.1,0.1-0.3,0.2-0.4,0.3c-0.2,0.1-0.3,0.1-0.5,0.1c-0.4,0-0.7-0.1-0.9-0.4c-0.3-0.3-0.4-0.6-0.4-0.9c0-0.4,0.1-0.7,0.4-0.9
		c0.3-0.3,0.6-0.4,0.9-0.4c0.4,0,0.7,0.1,0.9,0.4C97.4,3.8,97.5,4.1,97.5,4.4 M100.1,5.2c0.1-0.2,0.1-0.5,0.1-0.8
		c0-0.5-0.1-1-0.3-1.4c-0.2-0.4-0.5-0.8-0.8-1c-0.4-0.3-0.8-0.5-1.3-0.7c-0.5-0.2-1-0.2-1.6-0.2c-0.6,0-1.1,0.1-1.6,0.2
		C94,1.5,93.6,1.7,93.3,2c-0.4,0.3-0.6,0.6-0.8,1c-0.2,0.4-0.3,0.9-0.3,1.4c0,1.2,0.6,2.1,1.9,2.6c-1.6,0.6-2.3,1.6-2.3,3
		c0,0.5,0.1,1,0.3,1.4c0.2,0.4,0.5,0.8,1,1.1c0.4,0.3,0.9,0.6,1.4,0.7c0.5,0.2,1.1,0.3,1.8,0.3c0.7,0,1.3-0.1,1.8-0.3
		c0.5-0.2,1-0.4,1.4-0.7c0.4-0.3,0.7-0.7,0.9-1.1c0.2-0.4,0.3-0.9,0.3-1.4c0-1.4-0.8-2.4-2.4-3c0.4-0.2,0.7-0.3,0.9-0.5
		c0.2-0.2,0.4-0.4,0.6-0.6C100,5.7,100.1,5.5,100.1,5.2"/>
	<g>
		<path class="st1" d="M112.1,1.2h1.6v5.7h-1.6V1.2z"/>
		<path class="st1" d="M115.1,1.2h1.5l2.3,3v-3h1.6v5.7h-1.4l-2.4-3.1v3.1h-1.6V1.2z"/>
		<path class="st1" d="M123.2,2.6h-1.7V1.2h5v1.4h-1.7v4.3h-1.6V2.6z"/>
		<path class="st1" d="M127.6,1.2h4.6v1.3h-3v0.9h2.7v1.2h-2.7v0.9h3v1.3h-4.6V1.2z"/>
		<path class="st1" d="M133.4,1.2h2.7c0.9,0,1.5,0.2,1.8,0.6c0.3,0.3,0.5,0.8,0.5,1.3v0c0,0.9-0.5,1.5-1.2,1.8l1.4,2h-1.8l-1.1-1.7
			H135v1.7h-1.6V1.2z M136,3.9c0.5,0,0.8-0.3,0.8-0.7v0c0-0.5-0.3-0.7-0.8-0.7h-1v1.4H136z"/>
		<path class="st1" d="M139.6,1.2h1.5l2.3,3v-3h1.6v5.7h-1.4l-2.4-3.1v3.1h-1.6V1.2z"/>
		<path class="st1" d="M148.3,1.2h1.5l2.4,5.7h-1.7l-0.4-1H148l-0.4,1h-1.6L148.3,1.2z M149.7,4.6L149.1,3l-0.6,1.6H149.7z"/>
		<path class="st1" d="M153.9,2.6h-1.7V1.2h5v1.4h-1.7v4.3h-1.6V2.6z"/>
		<path class="st1" d="M158.3,1.2h1.6v5.7h-1.6V1.2z"/>
		<path class="st1" d="M161.1,4.1L161.1,4.1c0-1.6,1.3-3,3.1-3c1.8,0,3,1.3,3,2.9v0c0,1.6-1.3,2.9-3.1,2.9S161.1,5.7,161.1,4.1z
			 M165.6,4.1L165.6,4.1c0-0.8-0.6-1.5-1.5-1.5s-1.4,0.7-1.4,1.5v0c0,0.8,0.6,1.5,1.5,1.5C165,5.6,165.6,4.9,165.6,4.1z"/>
		<path class="st1" d="M168.4,1.2h1.5l2.3,3v-3h1.6v5.7h-1.4L170,3.8v3.1h-1.6V1.2z"/>
		<path class="st1" d="M177.2,1.2h1.5l2.4,5.7h-1.7l-0.4-1h-2.2l-0.4,1h-1.6L177.2,1.2z M178.5,4.6L177.9,3l-0.6,1.6H178.5z"/>
		<path class="st1" d="M182,1.2h1.6v4.3h2.7v1.4H182V1.2z"/>
		<path class="st1" d="M111.8,13.8L111.8,13.8c0-1.6,1.3-3,3.1-3s3,1.3,3,2.9v0c0,1.6-1.3,2.9-3.1,2.9
			C113.1,16.7,111.8,15.4,111.8,13.8z M116.3,13.8L116.3,13.8c0-0.8-0.6-1.5-1.5-1.5c-0.9,0-1.4,0.7-1.4,1.5v0
			c0,0.8,0.6,1.5,1.5,1.5C115.8,15.3,116.3,14.6,116.3,13.8z"/>
		<path class="st1" d="M119.1,10.9h2.4c1.4,0,2.3,0.7,2.3,2v0c0,1.3-1,2-2.4,2h-0.8v1.6h-1.6V10.9z M121.5,13.8
			c0.6,0,0.9-0.3,0.9-0.7v0c0-0.5-0.3-0.7-0.9-0.7h-0.7v1.5H121.5z"/>
		<path class="st1" d="M125,10.9h4.6v1.3h-3v0.9h2.7v1.2h-2.7v0.9h3v1.3H125V10.9z"/>
		<path class="st1" d="M130.8,10.9h1.5l2.3,3v-3h1.6v5.7h-1.4l-2.4-3.1v3.1h-1.6V10.9z"/>
		<path class="st1" d="M140.2,10.9h2.2c2,0,3.2,1.2,3.2,2.8v0c0,1.6-1.2,2.9-3.2,2.9h-2.2V10.9z M141.8,12.3v2.9h0.6
			c0.9,0,1.6-0.5,1.6-1.4v0c0-0.9-0.6-1.4-1.6-1.4H141.8z"/>
		<path class="st1" d="M148.4,10.9h1.5l2.4,5.7h-1.7l-0.4-1H148l-0.4,1H146L148.4,10.9z M149.8,14.4l-0.6-1.6l-0.6,1.6H149.8z"/>
		<path class="st1" d="M153.9,12.3h-1.7v-1.4h5v1.4h-1.7v4.3h-1.6V12.3z"/>
		<path class="st1" d="M159.5,10.9h1.5l2.4,5.7h-1.7l-0.4-1h-2.2l-0.4,1h-1.6L159.5,10.9z M160.9,14.4l-0.6-1.6l-0.6,1.6H160.9z"/>
		<path class="st1" d="M111.8,23.5L111.8,23.5c0-1.7,1.3-3,3-3c1.2,0,1.9,0.5,2.4,1.2l-1.2,0.9c-0.3-0.4-0.7-0.7-1.2-0.7
			c-0.8,0-1.4,0.7-1.4,1.5v0c0,0.9,0.6,1.5,1.4,1.5c0.6,0,0.9-0.3,1.3-0.7l1.2,0.8c-0.5,0.7-1.3,1.3-2.5,1.3
			C113.1,26.4,111.8,25.2,111.8,23.5z"/>
		<path class="st1" d="M118,23.5L118,23.5c0-1.6,1.3-3,3.1-3c1.8,0,3,1.3,3,2.9v0c0,1.6-1.3,3-3.1,3S118,25.1,118,23.5z M122.5,23.5
			L122.5,23.5c0-0.8-0.6-1.5-1.5-1.5s-1.4,0.7-1.4,1.5v0c0,0.8,0.6,1.5,1.5,1.5C121.9,25,122.5,24.3,122.5,23.5z"/>
		<path class="st1" d="M125.3,20.6h1.5l2.3,3v-3h1.6v5.7h-1.4l-2.4-3.1v3.1h-1.6V20.6z"/>
		<path class="st1" d="M132.1,20.6h4.5V22h-3v1h2.7v1.3h-2.7v2h-1.6V20.6z"/>
		<path class="st1" d="M137.7,20.6h4.6V22h-3v0.9h2.7v1.2h-2.7V25h3v1.3h-4.6V20.6z"/>
		<path class="st1" d="M143.6,20.6h2.7c0.9,0,1.5,0.2,1.8,0.6c0.3,0.3,0.5,0.8,0.5,1.3v0c0,0.9-0.5,1.5-1.2,1.8l1.4,2H147l-1.1-1.7
			h-0.7v1.7h-1.6V20.6z M146.2,23.4c0.5,0,0.8-0.3,0.8-0.7v0c0-0.5-0.3-0.7-0.9-0.7h-1v1.4H146.2z"/>
		<path class="st1" d="M149.8,20.6h4.6V22h-3v0.9h2.7v1.2h-2.7V25h3v1.3h-4.6V20.6z"/>
		<path class="st1" d="M155.6,20.6h1.5l2.3,3v-3h1.6v5.7h-1.4l-2.4-3.1v3.1h-1.6V20.6z"/>
		<path class="st1" d="M162.2,23.5L162.2,23.5c0-1.7,1.3-3,3-3c1.2,0,1.9,0.5,2.4,1.2l-1.2,0.9c-0.3-0.4-0.7-0.7-1.2-0.7
			c-0.8,0-1.4,0.7-1.4,1.5v0c0,0.9,0.6,1.5,1.4,1.5c0.6,0,0.9-0.3,1.3-0.7l1.2,0.8c-0.5,0.7-1.3,1.3-2.5,1.3
			C163.5,26.4,162.2,25.2,162.2,23.5z"/>
		<path class="st1" d="M168.7,20.6h4.6V22h-3v0.9h2.7v1.2h-2.7V25h3v1.3h-4.6V20.6z"/>
	</g>
</g>
</svg>
